<?xml version="1.0" encoding="UTF-8"?>
<!DOCTYPE svg PUBLIC "-//W3C//DTD SVG 1.1//EN" "http://www.w3.org/Graphics/SVG/1.1/DTD/svg11.dtd">
<svg version="1.2" viewBox="6350 25 15750 15750" preserveAspectRatio="xMidYMid" fill-rule="evenodd" stroke-width="28.222" stroke-linejoin="round" xmlns="http://www.w3.org/2000/svg" xmlns:ooo="http://xml.openoffice.org/svg/export" xmlns:xlink="http://www.w3.org/1999/xlink" xmlns:presentation="http://sun.com/xmlns/staroffice/presentation" xmlns:smil="http://www.w3.org/2001/SMIL20/" xmlns:anim="urn:oasis:names:tc:opendocument:xmlns:animation:1.0" xml:space="preserve">
 <defs class="EmbeddedBulletChars">
  <g id="bullet-char-template-57356" transform="scale(0.00048828125,-0.00048828125)">
   <path d="M 580,1141 L 1163,571 580,0 -4,571 580,1141 Z"/>
  </g>
  <g id="bullet-char-template-57354" transform="scale(0.00048828125,-0.00048828125)">
   <path d="M 8,1128 L 1137,1128 1137,0 8,0 8,1128 Z"/>
  </g>
  <g id="bullet-char-template-10146" transform="scale(0.00048828125,-0.00048828125)">
   <path d="M 174,0 L 602,739 174,1481 1456,739 174,0 Z M 1358,739 L 309,1346 659,739 1358,739 Z"/>
  </g>
  <g id="bullet-char-template-10132" transform="scale(0.00048828125,-0.00048828125)">
   <path d="M 2015,739 L 1276,0 717,0 1260,543 174,543 174,936 1260,936 717,1481 1274,1481 2015,739 Z"/>
  </g>
  <g id="bullet-char-template-10007" transform="scale(0.00048828125,-0.00048828125)">
   <path d="M 0,-2 C -7,14 -16,27 -25,37 L 356,567 C 262,823 215,952 215,954 215,979 228,992 255,992 264,992 276,990 289,987 310,991 331,999 354,1012 L 381,999 492,748 772,1049 836,1024 860,1049 C 881,1039 901,1025 922,1006 886,937 835,863 770,784 769,783 710,716 594,584 L 774,223 C 774,196 753,168 711,139 L 727,119 C 717,90 699,76 672,76 641,76 570,178 457,381 L 164,-76 C 142,-110 111,-127 72,-127 30,-127 9,-110 8,-76 1,-67 -2,-52 -2,-32 -2,-23 -1,-13 0,-2 Z"/>
  </g>
  <g id="bullet-char-template-10004" transform="scale(0.00048828125,-0.00048828125)">
   <path d="M 285,-33 C 182,-33 111,30 74,156 52,228 41,333 41,471 41,549 55,616 82,672 116,743 169,778 240,778 293,778 328,747 346,684 L 369,508 C 377,444 397,411 428,410 L 1163,1116 C 1174,1127 1196,1133 1229,1133 1271,1133 1292,1118 1292,1087 L 1292,965 C 1292,929 1282,901 1262,881 L 442,47 C 390,-6 338,-33 285,-33 Z"/>
  </g>
  <g id="bullet-char-template-9679" transform="scale(0.00048828125,-0.00048828125)">
   <path d="M 813,0 C 632,0 489,54 383,161 276,268 223,411 223,592 223,773 276,916 383,1023 489,1130 632,1184 813,1184 992,1184 1136,1130 1245,1023 1353,916 1407,772 1407,592 1407,412 1353,268 1245,161 1136,54 992,0 813,0 Z"/>
  </g>
  <g id="bullet-char-template-8226" transform="scale(0.00048828125,-0.00048828125)">
   <path d="M 346,457 C 273,457 209,483 155,535 101,586 74,649 74,723 74,796 101,859 155,911 209,963 273,989 346,989 419,989 480,963 531,910 582,859 608,796 608,723 608,648 583,586 532,535 482,483 420,457 346,457 Z"/>
  </g>
  <g id="bullet-char-template-8211" transform="scale(0.00048828125,-0.00048828125)">
   <path d="M -4,459 L 1135,459 1135,606 -4,606 -4,459 Z"/>
  </g>
  <g id="bullet-char-template-61548" transform="scale(0.00048828125,-0.00048828125)">
   <path d="M 173,740 C 173,903 231,1043 346,1159 462,1274 601,1332 765,1332 928,1332 1067,1274 1183,1159 1299,1043 1357,903 1357,740 1357,577 1299,437 1183,322 1067,206 928,148 765,148 601,148 462,206 346,322 231,437 173,577 173,740 Z"/>
  </g>
 </defs>
 <g ooo:name="page1" class="Page">
  <g class="Graphic">
   <g id="id3">
    <rect class="BoundingBox" stroke="none" fill="none" x="6350" y="25" width="15750" height="15750"/>
    <path fill="rgb(255,255,255)" stroke="none" d="M 6360,15764 L 22089,15764 22089,35 6360,35 6360,15764 Z"/>
    <path fill="rgb(255,255,255)" stroke="none" d="M 8836,14222 L 21370,14222 21370,229 8836,229 8836,14222 Z"/>
    <path fill="none" stroke="rgb(51,51,51)" stroke-width="22" stroke-linejoin="round" d="M 8836,14222 L 8836,14060"/>
    <path fill="rgb(51,51,51)" stroke="none" d="M 8621,14671 L 8719,14671 8719,14392 8619,14413 8619,14337 8719,14316 8825,14316 8825,14671 8923,14671 8923,14748 8621,14748 8621,14671 Z"/>
    <path fill="rgb(51,51,51)" stroke="none" d="M 9024,14636 L 9128,14636 9128,14748 9024,14748 9024,14636 Z"/>
    <path fill="rgb(51,51,51)" stroke="none" d="M 9461,14532 C 9461,14478 9456,14440 9446,14418 9436,14396 9418,14384 9395,14384 9371,14384 9354,14396 9344,14418 9333,14440 9328,14478 9328,14532 9328,14586 9333,14625 9344,14647 9354,14670 9371,14680 9395,14680 9418,14680 9435,14670 9446,14647 9456,14625 9461,14586 9461,14532 L 9461,14532 Z M 9572,14532 C 9572,14604 9557,14659 9526,14698 9495,14737 9452,14756 9395,14756 9338,14756 9294,14737 9263,14698 9233,14659 9217,14604 9217,14532 9217,14461 9233,14406 9263,14367 9294,14328 9338,14309 9395,14309 9452,14309 9495,14328 9526,14367 9557,14406 9572,14461 9572,14532 L 9572,14532 Z"/>
    <path fill="rgb(51,51,51)" stroke="none" d="M 8118,14528 L 8489,14528 8489,14596 8118,14596 8118,14528 Z"/>
    <path fill="none" stroke="rgb(51,51,51)" stroke-width="22" stroke-linejoin="round" d="M 11970,14222 L 11970,14060"/>
    <path fill="rgb(51,51,51)" stroke="none" d="M 11958,14532 C 11958,14478 11952,14440 11942,14418 11932,14396 11915,14384 11891,14384 11868,14384 11850,14396 11840,14418 11830,14440 11825,14478 11825,14532 11825,14586 11830,14625 11840,14647 11850,14670 11868,14680 11891,14680 11915,14680 11932,14670 11942,14647 11952,14625 11958,14586 11958,14532 L 11958,14532 Z M 12069,14532 C 12069,14604 12054,14659 12023,14698 11992,14737 11948,14756 11891,14756 11834,14756 11791,14737 11760,14698 11729,14659 11714,14604 11714,14532 11714,14461 11729,14406 11760,14367 11791,14328 11834,14309 11891,14309 11948,14309 11992,14328 12023,14367 12054,14406 12069,14461 12069,14532 L 12069,14532 Z"/>
    <path fill="rgb(51,51,51)" stroke="none" d="M 12158,14636 L 12262,14636 12262,14748 12158,14748 12158,14636 Z"/>
    <path fill="rgb(51,51,51)" stroke="none" d="M 12385,14316 L 12661,14316 12661,14398 12474,14398 12474,14465 C 12482,14463 12490,14461 12499,14460 12508,14458 12516,14458 12526,14458 12579,14458 12619,14471 12649,14498 12678,14524 12693,14560 12693,14607 12693,14654 12677,14691 12645,14717 12613,14743 12569,14756 12512,14756 12487,14756 12463,14753 12439,14749 12415,14744 12392,14737 12368,14728 L 12368,14640 C 12392,14654 12413,14664 12435,14670 12456,14678 12476,14680 12495,14680 12521,14680 12542,14674 12558,14661 12573,14648 12582,14630 12582,14607 12582,14585 12573,14567 12558,14554 12542,14541 12521,14534 12495,14534 12478,14534 12461,14536 12443,14540 12425,14544 12406,14551 12385,14559 L 12385,14316 Z"/>
    <path fill="rgb(51,51,51)" stroke="none" d="M 11252,14528 L 11623,14528 11623,14596 11252,14596 11252,14528 Z"/>
    <path fill="none" stroke="rgb(51,51,51)" stroke-width="22" stroke-linejoin="round" d="M 15103,14222 L 15103,14060"/>
    <path fill="rgb(51,51,51)" stroke="none" d="M 14851,14532 C 14851,14478 14845,14440 14835,14418 14825,14396 14808,14384 14784,14384 14761,14384 14744,14396 14734,14418 14723,14440 14718,14478 14718,14532 14718,14586 14723,14625 14734,14647 14744,14670 14761,14680 14784,14680 14808,14680 14825,14670 14835,14647 14845,14625 14851,14586 14851,14532 L 14851,14532 Z M 14962,14532 C 14962,14604 14947,14659 14916,14698 14885,14737 14841,14756 14784,14756 14728,14756 14684,14737 14653,14698 14622,14659 14607,14604 14607,14532 14607,14461 14622,14406 14653,14367 14684,14328 14728,14309 14784,14309 14841,14309 14885,14328 14916,14367 14947,14406 14962,14461 14962,14532 L 14962,14532 Z"/>
    <path fill="rgb(51,51,51)" stroke="none" d="M 15051,14636 L 15155,14636 15155,14748 15051,14748 15051,14636 Z"/>
    <path fill="rgb(51,51,51)" stroke="none" d="M 15488,14532 C 15488,14478 15482,14440 15472,14418 15462,14396 15445,14384 15421,14384 15398,14384 15380,14396 15370,14418 15360,14440 15355,14478 15355,14532 15355,14586 15360,14625 15370,14647 15380,14670 15398,14680 15421,14680 15445,14680 15462,14670 15472,14647 15482,14625 15488,14586 15488,14532 L 15488,14532 Z M 15599,14532 C 15599,14604 15584,14659 15553,14698 15522,14737 15478,14756 15421,14756 15365,14756 15321,14737 15290,14698 15259,14659 15244,14604 15244,14532 15244,14461 15259,14406 15290,14367 15321,14328 15365,14309 15421,14309 15478,14309 15522,14328 15553,14367 15584,14406 15599,14461 15599,14532 L 15599,14532 Z"/>
    <path fill="none" stroke="rgb(51,51,51)" stroke-width="22" stroke-linejoin="round" d="M 18237,14222 L 18237,14060"/>
    <path fill="rgb(51,51,51)" stroke="none" d="M 17984,14532 C 17984,14478 17979,14440 17969,14418 17959,14396 17942,14384 17918,14384 17894,14384 17877,14396 17867,14418 17856,14440 17852,14478 17852,14532 17852,14586 17856,14625 17867,14647 17877,14670 17894,14680 17918,14680 17942,14680 17958,14670 17969,14647 17979,14625 17984,14586 17984,14532 L 17984,14532 Z M 18096,14532 C 18096,14604 18080,14659 18049,14698 18019,14737 17975,14756 17918,14756 17861,14756 17817,14737 17787,14698 17756,14659 17740,14604 17740,14532 17740,14461 17756,14406 17787,14367 17817,14328 17861,14309 17918,14309 17975,14309 18019,14328 18049,14367 18080,14406 18096,14461 18096,14532 L 18096,14532 Z"/>
    <path fill="rgb(51,51,51)" stroke="none" d="M 18184,14636 L 18289,14636 18289,14748 18184,14748 18184,14636 Z"/>
    <path fill="rgb(51,51,51)" stroke="none" d="M 18412,14316 L 18688,14316 18688,14398 18500,14398 18500,14465 C 18509,14463 18517,14461 18526,14460 18534,14458 18543,14458 18552,14458 18605,14458 18646,14471 18676,14498 18705,14524 18720,14560 18720,14607 18720,14654 18704,14691 18672,14717 18640,14743 18595,14756 18539,14756 18514,14756 18490,14753 18466,14749 18442,14744 18418,14737 18394,14728 L 18394,14640 C 18418,14654 18440,14664 18461,14670 18483,14678 18502,14680 18521,14680 18548,14680 18569,14674 18585,14661 18600,14648 18608,14630 18608,14607 18608,14585 18600,14567 18585,14554 18569,14541 18548,14534 18521,14534 18505,14534 18487,14536 18470,14540 18452,14544 18432,14551 18412,14559 L 18412,14316 Z"/>
    <path fill="none" stroke="rgb(51,51,51)" stroke-width="22" stroke-linejoin="round" d="M 21370,14222 L 21370,14060"/>
    <path fill="rgb(51,51,51)" stroke="none" d="M 20915,14671 L 21013,14671 21013,14392 20912,14413 20912,14337 21012,14316 21118,14316 21118,14671 21217,14671 21217,14748 20915,14748 20915,14671 Z"/>
    <path fill="rgb(51,51,51)" stroke="none" d="M 21318,14636 L 21422,14636 21422,14748 21318,14748 21318,14636 Z"/>
    <path fill="rgb(51,51,51)" stroke="none" d="M 21755,14532 C 21755,14478 21749,14440 21739,14418 21729,14396 21712,14384 21688,14384 21665,14384 21648,14396 21638,14418 21627,14440 21622,14478 21622,14532 21622,14586 21627,14625 21638,14647 21648,14670 21665,14680 21688,14680 21712,14680 21729,14670 21739,14647 21749,14625 21755,14586 21755,14532 L 21755,14532 Z M 21866,14532 C 21866,14604 21851,14659 21820,14698 21789,14737 21745,14756 21688,14756 21632,14756 21588,14737 21557,14698 21526,14659 21511,14604 21511,14532 21511,14461 21526,14406 21557,14367 21588,14328 21632,14309 21688,14309 21745,14309 21789,14328 21820,14367 21851,14406 21866,14461 21866,14532 L 21866,14532 Z"/>
    <path fill="rgb(0,0,0)" stroke="none" d="M 14378,15130 L 14378,15215 C 14364,15205 14350,15198 14336,15194 14322,15189 14307,15186 14292,15186 14263,15186 14240,15195 14224,15212 14208,15228 14200,15252 14200,15282 14200,15313 14208,15337 14224,15353 14240,15370 14263,15378 14292,15378 14308,15378 14323,15376 14338,15371 14352,15366 14366,15359 14378,15350 L 14378,15434 C 14362,15440 14345,15445 14329,15448 14312,15450 14296,15452 14279,15452 14220,15452 14175,15437 14142,15407 14108,15378 14092,15336 14092,15282 14092,15229 14108,15188 14142,15157 14175,15128 14220,15112 14279,15112 14296,15112 14312,15114 14329,15117 14345,15120 14362,15124 14378,15130 L 14378,15130 Z"/>
    <path fill="rgb(0,0,0)" stroke="none" d="M 14622,15186 C 14599,15186 14581,15195 14569,15211 14557,15228 14551,15252 14551,15282 14551,15314 14557,15337 14569,15354 14581,15371 14599,15378 14622,15378 14644,15378 14661,15371 14673,15354 14685,15337 14692,15314 14692,15282 14692,15252 14685,15228 14673,15211 14661,15195 14644,15186 14622,15186 L 14622,15186 Z M 14622,15112 C 14677,15112 14721,15128 14752,15157 14783,15188 14799,15229 14799,15282 14799,15336 14783,15378 14752,15407 14721,15437 14677,15452 14622,15452 14566,15452 14522,15437 14491,15407 14459,15378 14443,15336 14443,15282 14443,15229 14459,15188 14491,15157 14522,15128 14566,15112 14622,15112 L 14622,15112 Z"/>
    <path fill="rgb(0,0,0)" stroke="none" d="M 15127,15130 L 15127,15209 C 15105,15200 15084,15193 15063,15188 15043,15183 15023,15181 15005,15181 14985,15181 14970,15184 14961,15189 14951,15194 14947,15201 14947,15211 14947,15219 14950,15226 14957,15230 14965,15235 14978,15238 14996,15240 L 15015,15243 C 15068,15250 15103,15260 15121,15276 15140,15291 15149,15315 15149,15349 15149,15383 15136,15409 15111,15426 15085,15443 15047,15452 14997,15452 14976,15452 14953,15450 14931,15447 14908,15444 14884,15439 14860,15432 L 14860,15353 C 14880,15364 14902,15372 14924,15376 14945,15381 14967,15384 14990,15384 15010,15384 15025,15381 15036,15375 15046,15370 15051,15362 15051,15350 15051,15341 15047,15334 15040,15330 15033,15325 15019,15321 14998,15319 L 14980,15317 C 14934,15311 14902,15301 14883,15285 14864,15269 14856,15246 14856,15214 14856,15179 14867,15154 14891,15137 14914,15121 14950,15112 14999,15112 15018,15112 15037,15114 15059,15117 15080,15120 15102,15124 15127,15130 L 15127,15130 Z"/>
    <path fill="rgb(0,0,0)" stroke="none" d="M 15400,15522 L 15315,15522 C 15285,15474 15263,15429 15249,15386 15235,15343 15228,15301 15228,15259 15228,15217 15235,15174 15249,15131 15264,15088 15285,15042 15315,14995 L 15400,14995 C 15376,15041 15357,15085 15345,15129 15332,15173 15326,15215 15326,15258 15326,15301 15332,15344 15345,15388 15357,15432 15376,15475 15400,15522 L 15400,15522 Z"/>
    <path fill="rgb(0,0,0)" stroke="none" d="M 15902,15522 C 15927,15475 15945,15432 15958,15388 15970,15344 15976,15301 15976,15258 15976,15215 15970,15173 15958,15129 15945,15085 15927,15041 15902,14995 L 15988,14995 C 16017,15042 16039,15088 16053,15131 16067,15174 16074,15217 16074,15259 16074,15301 16067,15343 16053,15386 16039,15429 16017,15474 15988,15522 L 15902,15522 Z"/>
    <path fill="rgb(0,0,0)" stroke="none" d="M 15582,15252 C 15583,15291 15589,15318 15599,15334 15617,15363 15634,15377 15651,15377 15668,15377 15686,15363 15704,15334 15714,15318 15720,15291 15721,15252 L 15582,15252 Z M 15721,15178 C 15718,15146 15713,15121 15703,15103 15688,15075 15671,15061 15652,15061 15631,15061 15614,15075 15599,15103 15590,15122 15584,15147 15582,15178 L 15721,15178 Z M 15652,14989 C 15716,14989 15762,15010 15789,15053 15816,15095 15830,15151 15830,15222 15830,15293 15816,15349 15788,15389 15759,15430 15714,15450 15651,15450 15588,15450 15543,15430 15515,15389 15487,15349 15473,15293 15473,15222 15473,15151 15486,15095 15514,15053 15541,15010 15586,14989 15652,14989 L 15652,14989 Z"/>
    <path fill="none" stroke="rgb(51,51,51)" stroke-width="22" stroke-linejoin="round" d="M 8836,11621 L 8998,11621"/>
    <path fill="rgb(51,51,51)" stroke="none" d="M 7304,11759 L 7402,11759 7402,11480 7302,11501 7302,11425 7402,11404 7508,11404 7508,11759 7606,11759 7606,11836 7304,11836 7304,11759 Z"/>
    <path fill="rgb(51,51,51)" stroke="none" d="M 7919,11620 C 7919,11566 7914,11528 7904,11505 7894,11484 7876,11472 7853,11472 7829,11472 7812,11484 7802,11505 7791,11528 7786,11566 7786,11620 7786,11674 7791,11713 7802,11735 7812,11758 7829,11768 7853,11768 7876,11768 7893,11758 7904,11735 7914,11713 7919,11674 7919,11620 L 7919,11620 Z M 8030,11620 C 8030,11692 8015,11747 7984,11786 7953,11825 7910,11844 7853,11844 7796,11844 7752,11825 7721,11786 7691,11747 7675,11692 7675,11620 7675,11549 7691,11494 7721,11455 7752,11416 7796,11397 7853,11397 7910,11397 7953,11416 7984,11455 8015,11494 8030,11549 8030,11620 L 8030,11620 Z"/>
    <path fill="rgb(51,51,51)" stroke="none" d="M 8460,11555 L 8529,11555 8529,11360 8458,11375 8458,11322 8529,11307 8603,11307 8603,11555 8672,11555 8672,11609 8460,11609 8460,11555 Z"/>
    <path fill="rgb(51,51,51)" stroke="none" d="M 8108,11455 L 8368,11455 8368,11503 8108,11503 8108,11455 Z"/>
    <path fill="none" stroke="rgb(51,51,51)" stroke-width="22" stroke-linejoin="round" d="M 8836,5543 L 8998,5543"/>
    <path fill="rgb(51,51,51)" stroke="none" d="M 7654,5687 L 7752,5687 7752,5408 7651,5429 7651,5353 7752,5332 7858,5332 7858,5687 7956,5687 7956,5764 7654,5764 7654,5687 Z"/>
    <path fill="rgb(51,51,51)" stroke="none" d="M 8269,5548 C 8269,5494 8264,5456 8254,5433 8244,5411 8226,5400 8203,5400 8179,5400 8162,5411 8152,5433 8141,5456 8136,5494 8136,5548 8136,5602 8141,5641 8152,5663 8162,5686 8179,5696 8203,5696 8226,5696 8243,5686 8254,5663 8264,5641 8269,5602 8269,5548 L 8269,5548 Z M 8380,5548 C 8380,5620 8365,5675 8334,5713 8303,5752 8260,5771 8203,5771 8146,5771 8102,5752 8071,5713 8040,5675 8025,5620 8025,5548 8025,5477 8040,5422 8071,5383 8102,5344 8146,5324 8203,5324 8260,5324 8303,5344 8334,5383 8365,5422 8380,5477 8380,5548 L 8380,5548 Z"/>
    <path fill="rgb(51,51,51)" stroke="none" d="M 8605,5386 C 8605,5348 8601,5322 8594,5306 8587,5290 8575,5283 8559,5283 8542,5283 8530,5290 8523,5306 8515,5322 8512,5348 8512,5386 8512,5424 8515,5451 8523,5467 8530,5482 8542,5490 8559,5490 8575,5490 8587,5482 8594,5467 8601,5451 8605,5424 8605,5386 L 8605,5386 Z M 8683,5386 C 8683,5436 8672,5475 8651,5502 8629,5529 8598,5542 8559,5542 8519,5542 8488,5529 8467,5502 8445,5475 8434,5436 8434,5386 8434,5336 8445,5298 8467,5271 8488,5243 8519,5230 8559,5230 8598,5230 8629,5243 8651,5271 8672,5298 8683,5336 8683,5386 L 8683,5386 Z"/>
    <path fill="none" stroke="rgb(51,51,51)" stroke-width="16" stroke-linejoin="round" d="M 8836,14039 L 8917,14039"/>
    <path fill="none" stroke="rgb(51,51,51)" stroke-width="16" stroke-linejoin="round" d="M 8836,13450 L 8917,13450"/>
    <path fill="none" stroke="rgb(51,51,51)" stroke-width="16" stroke-linejoin="round" d="M 8836,12969 L 8917,12969"/>
    <path fill="none" stroke="rgb(51,51,51)" stroke-width="16" stroke-linejoin="round" d="M 8836,12562 L 8917,12562"/>
    <path fill="none" stroke="rgb(51,51,51)" stroke-width="16" stroke-linejoin="round" d="M 8836,12209 L 8917,12209"/>
    <path fill="none" stroke="rgb(51,51,51)" stroke-width="16" stroke-linejoin="round" d="M 8836,11899 L 8917,11899"/>
    <path fill="none" stroke="rgb(51,51,51)" stroke-width="16" stroke-linejoin="round" d="M 8836,9791 L 8917,9791"/>
    <path fill="none" stroke="rgb(51,51,51)" stroke-width="16" stroke-linejoin="round" d="M 8836,8721 L 8917,8721"/>
    <path fill="none" stroke="rgb(51,51,51)" stroke-width="16" stroke-linejoin="round" d="M 8836,7961 L 8917,7961"/>
    <path fill="none" stroke="rgb(51,51,51)" stroke-width="16" stroke-linejoin="round" d="M 8836,7372 L 8917,7372"/>
    <path fill="none" stroke="rgb(51,51,51)" stroke-width="16" stroke-linejoin="round" d="M 8836,6891 L 8917,6891"/>
    <path fill="none" stroke="rgb(51,51,51)" stroke-width="16" stroke-linejoin="round" d="M 8836,6484 L 8917,6484"/>
    <path fill="none" stroke="rgb(51,51,51)" stroke-width="16" stroke-linejoin="round" d="M 8836,6132 L 8917,6132"/>
    <path fill="none" stroke="rgb(51,51,51)" stroke-width="16" stroke-linejoin="round" d="M 8836,5821 L 8917,5821"/>
    <path fill="none" stroke="rgb(51,51,51)" stroke-width="16" stroke-linejoin="round" d="M 8836,3713 L 8917,3713"/>
    <path fill="none" stroke="rgb(51,51,51)" stroke-width="16" stroke-linejoin="round" d="M 8836,2643 L 8917,2643"/>
    <path fill="none" stroke="rgb(51,51,51)" stroke-width="16" stroke-linejoin="round" d="M 8836,1884 L 8917,1884"/>
    <path fill="none" stroke="rgb(51,51,51)" stroke-width="16" stroke-linejoin="round" d="M 8836,1295 L 8917,1295"/>
    <path fill="none" stroke="rgb(51,51,51)" stroke-width="16" stroke-linejoin="round" d="M 8836,813 L 8917,813"/>
    <path fill="none" stroke="rgb(51,51,51)" stroke-width="16" stroke-linejoin="round" d="M 8836,406 L 8917,406"/>
    <path fill="rgb(0,0,0)" stroke="none" d="M 6572,7836 L 6572,7651 C 6572,7597 6585,7555 6609,7525 6634,7495 6668,7481 6713,7481 6759,7481 6794,7495 6818,7525 6842,7555 6854,7597 6854,7651 L 6854,7725 7004,7725 7004,7836 6572,7836 Z M 6653,7725 L 6774,7725 6774,7663 C 6774,7642 6769,7625 6758,7613 6747,7602 6733,7596 6713,7596 6694,7596 6679,7602 6669,7613 6658,7625 6653,7642 6653,7663 L 6653,7725 Z"/>
    <path fill="rgb(0,0,0)" stroke="none" d="M 6656,7291 L 6920,7291 6920,7251 C 6920,7206 6908,7171 6886,7147 6863,7123 6831,7111 6788,7111 6745,7111 6713,7123 6690,7147 6668,7170 6656,7205 6656,7251 L 6656,7291 Z M 6572,7402 L 6572,7285 C 6572,7220 6577,7170 6586,7139 6596,7106 6611,7079 6634,7056 6653,7035 6676,7021 6701,7011 6727,7001 6756,6996 6788,6996 6820,6996 6849,7001 6875,7011 6901,7021 6923,7035 6942,7056 6965,7079 6981,7107 6990,7139 7000,7172 7004,7220 7004,7285 L 7004,7402 6572,7402 Z"/>
    <path fill="rgb(0,0,0)" stroke="none" d="M 6572,6911 L 6572,6610 6656,6610 6656,6799 6737,6799 6737,6622 6821,6622 6821,6799 7004,6799 7004,6911 6572,6911 Z"/>
    <defs>
     <clipPath id="clip_path_1" clipPathUnits="userSpaceOnUse">
      <path d="M 8836,811 L 21370,811 21370,14222 8836,14222 8836,811 Z"/>
     </clipPath>
    </defs>
    <g clip-path="url(#clip_path_1)">
     <path fill="none" stroke="rgb(1,115,178)" stroke-width="108" stroke-linejoin="miter" d="M 8836,15791 L 8836,13586 9463,13586 9463,12420 10090,12420 10090,11349 10716,11349 10716,13586 11343,13586 11343,12067 11970,12067 11970,13586 12596,13586 12596,12067 13223,12067 13223,12827 13850,12827 13850,11109 14476,11109 14476,12067 15103,12067 15103,11349 15730,11349 15730,10889 16357,10889 16357,11349 16983,11349 16983,12237 17610,12237 17610,10001 18237,10001 18237,9007 18863,9007 18863,8134 19490,8134 19490,6438 20117,6438 20117,4698 20744,4698 20744,865 21370,865 21370,15791"/>
    </g>
    <defs>
     <clipPath id="clip_path_2" clipPathUnits="userSpaceOnUse">
      <path d="M 8836,3709 L 21370,3709 21370,14222 8836,14222 8836,3709 Z"/>
     </clipPath>
    </defs>
    <g clip-path="url(#clip_path_2)">
     <path fill="none" stroke="rgb(222,143,5)" stroke-width="108" stroke-linejoin="miter" d="M 8836,15791 L 8836,3762 9463,3762 9463,4833 10090,4833 10090,5536 10716,5536 10716,5940 11343,5940 11343,7051 11970,7051 11970,7722 12596,7722 12596,7126 13223,7126 13223,7479 13850,7479 13850,7283 14476,7283 14476,7920 15103,7920 15103,8450 15730,8450 15730,9715 16357,9715 16357,8492 16983,8492 16983,9338 17610,9338 17610,9715 18237,9715 18237,10156 18863,10156 18863,11109 19490,11109 19490,11227 20117,11227 20117,12237 20744,12237 20744,11349 21370,11349 21370,15791"/>
    </g>
    <defs>
     <clipPath id="clip_path_3" clipPathUnits="userSpaceOnUse">
      <path d="M 8836,7447 L 21370,7447 21370,7555 8836,7555 8836,7447 Z"/>
     </clipPath>
    </defs>
    <g clip-path="url(#clip_path_3)">
     <path fill="none" stroke="rgb(2,158,115)" stroke-width="108" stroke-linejoin="round" d="M 8836,7501 L 21370,7501"/>
    </g>
    <path fill="none" stroke="rgb(51,51,51)" stroke-width="22" stroke-linejoin="miter" stroke-linecap="square" d="M 8836,14222 L 8836,229"/>
    <path fill="none" stroke="rgb(51,51,51)" stroke-width="22" stroke-linejoin="miter" stroke-linecap="square" d="M 21370,14222 L 21370,229"/>
    <path fill="none" stroke="rgb(51,51,51)" stroke-width="22" stroke-linejoin="miter" stroke-linecap="square" d="M 8836,14222 L 21370,14222"/>
    <path fill="none" stroke="rgb(51,51,51)" stroke-width="22" stroke-linejoin="miter" stroke-linecap="square" d="M 8836,229 L 21370,229"/>
    <path fill="rgb(1,115,178)" stroke="none" d="M 18627,2111 C 18606,2122 18585,2130 18563,2135 18541,2139 18518,2142 18494,2142 18422,2142 18365,2123 18323,2082 18281,2043 18260,1988 18260,1919 18260,1850 18281,1796 18323,1756 18365,1715 18422,1695 18494,1695 18518,1695 18541,1698 18563,1704 18585,1709 18606,1717 18627,1727 L 18627,1817 C 18606,1802 18586,1792 18566,1786 18546,1779 18525,1776 18503,1776 18463,1776 18431,1789 18409,1814 18386,1840 18375,1875 18375,1919 18375,1964 18386,1999 18409,2024 18431,2050 18463,2062 18503,2062 18525,2062 18546,2059 18566,2053 18586,2046 18606,2036 18627,2022 L 18627,2111 Z"/>
    <path fill="rgb(1,115,178)" stroke="none" d="M 18715,1685 L 18818,1685 18818,2135 18715,2135 18715,1685 Z"/>
    <path fill="rgb(1,115,178)" stroke="none" d="M 18914,2008 L 18914,1811 19019,1811 19019,1843 C 19019,1861 19018,1883 19018,1910 19018,1936 19018,1954 19018,1962 19018,1988 19019,2007 19020,2019 19021,2030 19023,2039 19027,2043 19031,2051 19036,2056 19043,2059 19050,2063 19058,2065 19067,2065 19088,2065 19106,2057 19118,2040 19130,2023 19136,2000 19136,1971 L 19136,1811 19240,1811 19240,2135 19136,2135 19136,2088 C 19121,2107 19104,2121 19087,2129 19069,2138 19050,2142 19029,2142 18991,2142 18963,2131 18943,2109 18924,2086 18914,2052 18914,2008 L 18914,2008 Z"/>
    <path fill="rgb(1,115,178)" stroke="none" d="M 19592,1821 L 19592,1900 C 19570,1891 19548,1884 19528,1879 19508,1874 19488,1872 19470,1872 19450,1872 19435,1875 19426,1879 19416,1884 19412,1892 19412,1902 19412,1910 19415,1917 19422,1921 19429,1926 19442,1929 19461,1931 L 19480,1933 C 19532,1940 19568,1951 19586,1967 19605,1982 19614,2006 19614,2039 19614,2074 19601,2100 19576,2117 19550,2134 19512,2142 19462,2142 19441,2142 19418,2141 19396,2138 19373,2135 19349,2130 19325,2123 L 19325,2044 C 19345,2055 19367,2062 19389,2067 19410,2072 19432,2074 19455,2074 19475,2074 19490,2072 19501,2066 19511,2061 19516,2052 19516,2041 19516,2032 19512,2025 19505,2020 19498,2016 19484,2012 19463,2010 L 19445,2007 C 19399,2002 19367,1991 19348,1975 19329,1960 19321,1936 19321,1904 19321,1870 19332,1844 19355,1828 19379,1811 19415,1803 19464,1803 19483,1803 19502,1805 19524,1808 19545,1811 19567,1815 19592,1821 L 19592,1821 Z"/>
    <path fill="rgb(1,115,178)" stroke="none" d="M 19805,1719 L 19805,1811 19911,1811 19911,1885 19805,1885 19805,2022 C 19805,2037 19808,2048 19814,2053 19820,2058 19831,2061 19849,2061 L 19903,2061 19903,2135 19814,2135 C 19773,2135 19744,2126 19727,2109 19710,2093 19701,2064 19701,2022 L 19701,1885 19650,1885 19650,1811 19701,1811 19701,1719 19805,1719 Z"/>
    <path fill="rgb(1,115,178)" stroke="none" d="M 20298,1972 L 20298,2001 20056,2001 C 20058,2026 20067,2044 20083,2056 20097,2068 20118,2074 20145,2074 20167,2074 20189,2071 20212,2065 20235,2058 20258,2048 20283,2035 L 20283,2115 C 20258,2125 20234,2131 20209,2135 20184,2140 20160,2142 20136,2142 20077,2142 20032,2127 19999,2098 19966,2068 19951,2027 19951,1973 19951,1920 19966,1879 19998,1849 20030,1818 20074,1803 20130,1803 20181,1803 20221,1818 20252,1849 20283,1880 20298,1921 20298,1972 L 20298,1972 Z M 20191,1937 C 20191,1918 20186,1902 20174,1890 20162,1878 20148,1872 20129,1872 20109,1872 20093,1878 20080,1889 20068,1900 20060,1916 20057,1937 L 20191,1937 Z"/>
    <path fill="rgb(1,115,178)" stroke="none" d="M 20617,1899 C 20607,1895 20598,1892 20589,1889 20581,1888 20572,1887 20563,1887 20536,1887 20515,1895 20501,1912 20487,1929 20480,1953 20480,1985 L 20480,2135 20376,2135 20376,1811 20480,1811 20480,1864 C 20493,1843 20508,1827 20525,1818 20543,1808 20563,1803 20588,1803 20591,1803 20595,1804 20599,1804 20603,1804 20608,1804 20617,1805 L 20617,1899 Z"/>
    <path fill="rgb(1,115,178)" stroke="none" d="M 18595,2366 L 18896,2366 18896,2450 18707,2450 18707,2531 18884,2531 18884,2615 18707,2615 18707,2798 18595,2798 18595,2366 Z"/>
    <path fill="rgb(1,115,178)" stroke="none" d="M 19198,2562 C 19188,2558 19179,2555 19170,2553 19161,2551 19153,2550 19144,2550 19117,2550 19096,2559 19082,2575 19068,2592 19061,2617 19061,2649 L 19061,2798 18957,2798 18957,2474 19061,2474 19061,2527 C 19074,2506 19088,2491 19106,2481 19124,2472 19144,2466 19169,2466 19172,2466 19176,2467 19180,2467 19183,2467 19189,2467 19198,2469 L 19198,2562 Z"/>
    <path fill="rgb(1,115,178)" stroke="none" d="M 19394,2652 C 19372,2652 19356,2656 19345,2663 19334,2670 19329,2681 19329,2695 19329,2708 19333,2719 19342,2726 19351,2734 19363,2737 19379,2737 19398,2737 19415,2731 19428,2717 19441,2702 19448,2685 19448,2664 L 19448,2652 19394,2652 Z M 19552,2613 L 19552,2798 19448,2798 19448,2750 C 19434,2770 19418,2784 19401,2792 19383,2801 19363,2805 19338,2805 19304,2805 19277,2796 19256,2776 19235,2758 19225,2732 19225,2701 19225,2663 19238,2635 19264,2617 19290,2599 19331,2591 19387,2591 L 19448,2591 19448,2582 C 19448,2566 19441,2554 19428,2547 19415,2539 19395,2535 19368,2535 19346,2535 19325,2537 19306,2542 19287,2547 19269,2553 19253,2562 L 19253,2483 C 19275,2477 19297,2473 19319,2470 19342,2468 19364,2466 19387,2466 19445,2466 19487,2478 19513,2501 19539,2524 19552,2562 19552,2613 L 19552,2613 Z"/>
    <path fill="rgb(1,115,178)" stroke="none" d="M 19949,2528 C 19962,2508 19977,2493 19995,2482 20013,2472 20033,2466 20055,2466 20092,2466 20120,2478 20140,2501 20159,2524 20169,2557 20169,2601 L 20169,2798 20065,2798 20065,2629 C 20065,2627 20066,2624 20066,2621 20066,2619 20066,2615 20066,2610 20066,2587 20062,2570 20055,2560 20048,2550 20038,2544 20023,2544 20003,2544 19988,2553 19977,2569 19967,2585 19961,2608 19961,2639 L 19961,2798 19857,2798 19857,2629 C 19857,2594 19853,2570 19847,2560 19841,2550 19830,2544 19814,2544 19794,2544 19779,2553 19768,2569 19758,2585 19752,2608 19752,2639 L 19752,2798 19648,2798 19648,2474 19752,2474 19752,2521 C 19765,2504 19780,2490 19796,2480 19813,2471 19830,2466 19851,2466 19873,2466 19892,2472 19909,2483 19926,2493 19939,2509 19949,2528 L 19949,2528 Z"/>
    <path fill="rgb(1,115,178)" stroke="none" d="M 20589,2635 L 20589,2665 20347,2665 C 20349,2689 20358,2707 20373,2719 20388,2731 20409,2737 20436,2737 20458,2737 20480,2734 20503,2728 20526,2721 20549,2711 20574,2698 L 20574,2778 C 20549,2788 20524,2794 20500,2798 20475,2803 20451,2805 20427,2805 20368,2805 20323,2791 20290,2761 20257,2731 20241,2690 20241,2636 20241,2583 20257,2542 20289,2512 20321,2482 20365,2466 20421,2466 20472,2466 20512,2482 20543,2512 20574,2543 20589,2584 20589,2635 L 20589,2635 Z M 20482,2601 C 20482,2581 20476,2565 20465,2553 20453,2541 20439,2535 20420,2535 20400,2535 20384,2541 20371,2552 20359,2563 20351,2579 20348,2601 L 20482,2601 Z"/>
    <path fill="rgb(222,143,5)" stroke="none" d="M 9049,2761 C 9072,2761 9088,2756 9098,2748 9109,2739 9114,2725 9114,2705 9114,2685 9109,2671 9098,2663 9088,2655 9072,2650 9049,2650 L 9002,2650 9002,2761 9049,2761 Z M 9002,2838 L 9002,3001 8891,3001 8891,2569 9061,2569 C 9117,2569 9159,2579 9186,2598 9212,2617 9225,2647 9225,2688 9225,2717 9218,2740 9204,2759 9190,2777 9170,2791 9142,2799 9158,2803 9171,2811 9183,2823 9195,2835 9207,2854 9220,2878 L 9280,3001 9162,3001 9109,2894 C 9098,2872 9087,2858 9077,2849 9066,2842 9051,2838 9033,2838 L 9002,2838 Z"/>
    <path fill="rgb(222,143,5)" stroke="none" d="M 9665,2838 L 9665,2868 9423,2868 C 9425,2892 9434,2910 9450,2922 9464,2935 9485,2941 9512,2941 9534,2941 9556,2938 9579,2931 9602,2925 9625,2915 9650,2901 L 9650,2981 C 9625,2991 9601,2997 9576,3002 9551,3006 9527,3009 9503,3009 9444,3009 9399,2994 9366,2964 9333,2935 9318,2893 9318,2839 9318,2787 9333,2745 9365,2715 9397,2685 9441,2669 9497,2669 9548,2669 9588,2685 9619,2716 9650,2746 9665,2787 9665,2838 L 9665,2838 Z M 9558,2804 C 9558,2784 9553,2768 9541,2756 9529,2745 9515,2738 9496,2738 9476,2738 9460,2744 9447,2755 9435,2767 9427,2782 9424,2804 L 9558,2804 Z"/>
    <path fill="rgb(222,143,5)" stroke="none" d="M 9743,2551 L 9847,2551 9847,3001 9743,3001 9743,2551 Z"/>
    <path fill="rgb(222,143,5)" stroke="none" d="M 10112,2677 L 10215,2677 10296,2901 10376,2677 10480,2677 10353,3001 10239,3001 10112,2677 Z"/>
    <path fill="rgb(222,143,5)" stroke="none" d="M 10862,2838 L 10862,2868 10620,2868 C 10622,2892 10631,2910 10646,2922 10661,2935 10682,2941 10709,2941 10730,2941 10753,2938 10776,2931 10798,2925 10822,2915 10846,2901 L 10846,2981 C 10821,2991 10797,2997 10773,3002 10748,3006 10724,3009 10700,3009 10641,3009 10595,2994 10563,2964 10530,2935 10514,2893 10514,2839 10514,2787 10530,2745 10562,2715 10594,2685 10638,2669 10694,2669 10745,2669 10785,2685 10816,2716 10846,2746 10862,2787 10862,2838 L 10862,2838 Z M 10755,2804 C 10755,2784 10749,2768 10738,2756 10726,2745 10711,2738 10693,2738 10673,2738 10656,2744 10644,2755 10631,2767 10624,2782 10621,2804 L 10755,2804 Z"/>
    <path fill="rgb(222,143,5)" stroke="none" d="M 10940,2551 L 11044,2551 11044,3001 10940,3001 10940,2551 Z"/>
    <path fill="rgb(222,143,5)" stroke="none" d="M 11530,2714 L 11649,2845 C 11659,2832 11666,2816 11672,2800 11677,2783 11680,2764 11681,2742 L 11771,2742 C 11768,2778 11761,2809 11751,2836 11740,2864 11725,2888 11706,2908 L 11791,3001 11668,3001 11640,2970 C 11620,2983 11598,2993 11576,2999 11553,3005 11530,3009 11505,3009 11454,3009 11413,2996 11382,2969 11350,2943 11335,2909 11335,2866 11335,2838 11341,2813 11356,2791 11369,2770 11392,2749 11423,2728 11415,2718 11408,2708 11405,2697 11401,2687 11399,2677 11399,2665 11399,2634 11411,2609 11436,2590 11460,2571 11493,2562 11534,2562 11551,2562 11569,2563 11588,2566 11607,2569 11627,2573 11648,2578 L 11648,2659 C 11630,2649 11613,2643 11597,2638 11580,2634 11565,2632 11549,2632 11534,2632 11523,2634 11514,2640 11506,2646 11502,2654 11502,2664 11502,2671 11505,2678 11510,2686 11514,2695 11521,2704 11530,2714 L 11530,2714 Z M 11473,2786 C 11460,2796 11450,2806 11444,2817 11438,2829 11435,2841 11435,2855 11435,2877 11443,2896 11459,2912 11476,2927 11495,2935 11518,2935 11531,2935 11543,2933 11555,2929 11565,2925 11576,2919 11586,2911 L 11473,2786 Z"/>
    <path fill="rgb(222,143,5)" stroke="none" d="M 12324,2687 L 12324,2766 C 12302,2757 12280,2750 12260,2745 12240,2740 12220,2738 12202,2738 12182,2738 12167,2741 12158,2746 12148,2751 12144,2758 12144,2768 12144,2776 12147,2783 12154,2787 12161,2792 12175,2795 12193,2797 L 12212,2800 C 12264,2807 12300,2817 12318,2833 12337,2848 12346,2872 12346,2906 12346,2940 12333,2966 12308,2983 12282,3000 12244,3009 12194,3009 12173,3009 12150,3007 12128,3004 12105,3001 12081,2996 12057,2989 L 12057,2910 C 12077,2921 12099,2929 12121,2933 12142,2938 12164,2941 12187,2941 12207,2941 12222,2938 12233,2932 12243,2927 12248,2919 12248,2907 12248,2898 12244,2891 12237,2887 12230,2882 12216,2878 12195,2876 L 12177,2874 C 12131,2868 12099,2858 12080,2842 12061,2826 12053,2803 12053,2771 12053,2736 12064,2711 12087,2694 12111,2678 12147,2669 12196,2669 12215,2669 12234,2671 12256,2674 12277,2677 12299,2681 12324,2687 L 12324,2687 Z"/>
    <path fill="rgb(222,143,5)" stroke="none" d="M 12747,2838 L 12747,2868 12505,2868 C 12507,2892 12516,2910 12532,2922 12546,2935 12567,2941 12594,2941 12616,2941 12638,2938 12661,2931 12684,2925 12707,2915 12732,2901 L 12732,2981 C 12707,2991 12683,2997 12658,3002 12633,3006 12609,3009 12585,3009 12526,3009 12481,2994 12448,2964 12415,2935 12399,2893 12399,2839 12399,2787 12415,2745 12447,2715 12479,2685 12523,2669 12579,2669 12630,2669 12670,2685 12701,2716 12732,2746 12747,2787 12747,2838 L 12747,2838 Z M 12640,2804 C 12640,2784 12635,2768 12623,2756 12611,2745 12597,2738 12578,2738 12558,2738 12542,2744 12529,2755 12517,2767 12509,2782 12506,2804 L 12640,2804 Z"/>
    <path fill="rgb(222,143,5)" stroke="none" d="M 12929,2954 L 12929,3124 12825,3124 12825,2677 12929,2677 12929,2724 C 12943,2706 12958,2692 12976,2683 12993,2674 13014,2669 13036,2669 13076,2669 13108,2685 13134,2717 13160,2749 13173,2790 13173,2840 13173,2890 13160,2931 13134,2962 13108,2993 13076,3009 13036,3009 13014,3009 12993,3004 12976,2996 12958,2987 12943,2973 12929,2954 L 12929,2954 Z M 12998,2745 C 12975,2745 12958,2753 12947,2769 12935,2785 12929,2809 12929,2839 12929,2870 12935,2894 12947,2910 12958,2926 12975,2934 12998,2934 13019,2934 13036,2926 13048,2910 13060,2894 13066,2870 13066,2839 13066,2809 13060,2785 13048,2769 13036,2753 13019,2745 12998,2745 L 12998,2745 Z"/>
    <path fill="rgb(255,255,255)" fill-opacity="0.102" stroke="rgb(255,255,255)" stroke-opacity="0.102" d="M 14997,7226 L 18149,7226 18149,6439 14997,6439 14997,7226 Z"/>
    <g style="opacity: 0.0980392156862745">
     <path fill="none" stroke="rgb(255,255,255)" stroke-width="27" stroke-linejoin="miter" d="M 14997,7226 L 18149,7226 18149,6439 14997,6439 14997,7226 Z"/>
    </g>
    <path fill="rgb(2,158,115)" stroke="none" d="M 15158,6564 L 15269,6564 15269,6996 15158,6996 15158,6564 Z"/>
    <path fill="rgb(2,158,115)" stroke="none" d="M 15626,6682 L 15626,6761 C 15604,6752 15582,6745 15562,6740 15541,6735 15522,6733 15503,6733 15483,6733 15469,6736 15460,6741 15450,6746 15445,6753 15445,6763 15445,6771 15449,6778 15456,6782 15463,6787 15476,6790 15495,6792 L 15514,6795 C 15566,6802 15602,6812 15620,6828 15638,6843 15648,6867 15648,6901 15648,6935 15635,6961 15609,6978 15584,6995 15546,7004 15496,7004 15474,7004 15452,7002 15429,6999 15406,6996 15383,6991 15359,6984 L 15359,6905 C 15379,6916 15400,6924 15422,6928 15444,6933 15466,6936 15489,6936 15509,6936 15524,6933 15534,6927 15544,6922 15550,6914 15550,6902 15550,6893 15546,6886 15539,6882 15532,6877 15518,6873 15497,6871 L 15479,6869 C 15432,6863 15400,6853 15382,6837 15363,6821 15354,6798 15354,6766 15354,6731 15366,6706 15389,6689 15413,6673 15449,6664 15498,6664 15517,6664 15536,6666 15557,6669 15579,6672 15601,6676 15626,6682 L 15626,6682 Z"/>
    <path fill="rgb(2,158,115)" stroke="none" d="M 15879,6738 C 15856,6738 15839,6747 15827,6763 15815,6780 15809,6804 15809,6834 15809,6866 15815,6889 15827,6906 15839,6923 15856,6930 15879,6930 15902,6930 15919,6923 15931,6906 15943,6889 15949,6866 15949,6834 15949,6804 15943,6780 15931,6763 15919,6747 15902,6738 15879,6738 L 15879,6738 Z M 15879,6664 C 15935,6664 15978,6680 16010,6709 16041,6740 16057,6781 16057,6834 16057,6888 16041,6930 16010,6959 15978,6989 15935,7004 15879,7004 15824,7004 15780,6989 15749,6959 15717,6930 15701,6888 15701,6834 15701,6781 15717,6740 15749,6709 15780,6680 15824,6664 15879,6664 L 15879,6664 Z"/>
    <path fill="rgb(2,158,115)" stroke="none" d="M 16245,6580 L 16245,6672 16352,6672 16352,6746 16245,6746 16245,6883 C 16245,6899 16248,6909 16254,6914 16260,6920 16272,6922 16290,6922 L 16343,6922 16343,6996 16254,6996 C 16213,6996 16184,6988 16167,6971 16150,6954 16142,6925 16142,6883 L 16142,6746 16090,6746 16090,6672 16142,6672 16142,6580 16245,6580 Z"/>
    <path fill="rgb(2,158,115)" stroke="none" d="M 16656,6760 C 16646,6756 16637,6753 16629,6751 16620,6749 16611,6748 16602,6748 16575,6748 16555,6757 16540,6773 16526,6791 16519,6815 16519,6847 L 16519,6996 16415,6996 16415,6672 16519,6672 16519,6725 C 16532,6704 16547,6689 16565,6679 16582,6670 16602,6664 16627,6664 16630,6664 16634,6665 16638,6665 16642,6665 16647,6666 16656,6667 L 16656,6760 Z"/>
    <path fill="rgb(2,158,115)" stroke="none" d="M 16861,6738 C 16838,6738 16820,6747 16809,6763 16797,6780 16791,6804 16791,6834 16791,6866 16797,6889 16809,6906 16820,6923 16838,6930 16861,6930 16884,6930 16901,6923 16913,6906 16925,6889 16931,6866 16931,6834 16931,6804 16925,6780 16913,6763 16901,6747 16884,6738 16861,6738 L 16861,6738 Z M 16861,6664 C 16917,6664 16960,6680 16991,6709 17023,6740 17039,6781 17039,6834 17039,6888 17023,6930 16991,6959 16960,6989 16917,7004 16861,7004 16806,7004 16762,6989 16730,6959 16698,6930 16683,6888 16683,6834 16683,6781 16698,6740 16730,6709 16762,6680 16806,6664 16861,6664 L 16861,6664 Z"/>
    <path fill="rgb(2,158,115)" stroke="none" d="M 17218,6949 L 17218,7119 17114,7119 17114,6672 17218,6672 17218,6719 C 17232,6701 17247,6687 17265,6678 17282,6669 17302,6664 17325,6664 17364,6664 17397,6680 17423,6712 17449,6744 17462,6785 17462,6835 17462,6885 17449,6926 17423,6957 17397,6988 17364,7004 17325,7004 17302,7004 17282,6999 17265,6991 17247,6982 17232,6968 17218,6949 L 17218,6949 Z M 17286,6740 C 17264,6740 17247,6748 17235,6764 17224,6780 17218,6804 17218,6834 17218,6865 17224,6889 17235,6905 17247,6921 17264,6929 17286,6929 17308,6929 17325,6921 17337,6905 17348,6889 17354,6865 17354,6834 17354,6804 17348,6780 17337,6764 17325,6748 17308,6740 17286,6740 L 17286,6740 Z"/>
    <path fill="rgb(2,158,115)" stroke="none" d="M 17538,6672 L 17642,6672 17642,6996 17538,6996 17538,6672 Z M 17538,6546 L 17642,6546 17642,6631 17538,6631 17538,6546 Z"/>
    <path fill="rgb(2,158,115)" stroke="none" d="M 18003,6682 L 18003,6767 C 17989,6757 17974,6750 17960,6746 17946,6741 17931,6738 17916,6738 17887,6738 17865,6747 17849,6764 17832,6780 17825,6804 17825,6834 17825,6865 17832,6889 17849,6905 17865,6922 17887,6930 17916,6930 17932,6930 17948,6928 17963,6923 17977,6918 17990,6911 18003,6902 L 18003,6986 C 17986,6992 17970,6997 17953,7000 17937,7002 17920,7004 17903,7004 17845,7004 17799,6989 17766,6959 17733,6930 17717,6888 17717,6834 17717,6781 17733,6740 17766,6709 17799,6680 17845,6664 17903,6664 17920,6664 17937,6666 17953,6669 17970,6672 17986,6676 18003,6682 L 18003,6682 Z"/>
   </g>
  </g>
  <g class="com.sun.star.drawing.LineShape">
   <g id="id4">
    <rect class="BoundingBox" stroke="none" fill="none" x="18339" y="13068" width="1982" height="535"/>
    <path fill="none" stroke="rgb(85,48,141)" stroke-width="152" stroke-linejoin="round" d="M 18415,13335 L 19823,13335"/>
    <path fill="rgb(85,48,141)" stroke="none" d="M 19787,13069 L 20320,13335 19787,13602 19787,13069 Z"/>
   </g>
  </g>
  <g class="com.sun.star.drawing.LineShape">
   <g id="id5">
    <rect class="BoundingBox" stroke="none" fill="none" x="18339" y="12668" width="1982" height="535"/>
    <path fill="none" stroke="rgb(255,0,0)" stroke-width="152" stroke-linejoin="round" d="M 18415,12935 L 19823,12935"/>
    <path fill="rgb(255,0,0)" stroke="none" d="M 19787,12669 L 20320,12935 19787,13202 19787,12669 Z"/>
   </g>
  </g>
  <g class="com.sun.star.drawing.LineShape">
   <g id="id6">
    <rect class="BoundingBox" stroke="none" fill="none" x="15339" y="13068" width="1982" height="535"/>
    <path fill="none" stroke="rgb(85,48,141)" stroke-width="152" stroke-linejoin="round" d="M 15415,13335 L 16823,13335"/>
    <path fill="rgb(85,48,141)" stroke="none" d="M 16787,13069 L 17320,13335 16787,13602 16787,13069 Z"/>
   </g>
  </g>
  <g class="com.sun.star.drawing.LineShape">
   <g id="id7">
    <rect class="BoundingBox" stroke="none" fill="none" x="15148" y="11730" width="535" height="1582"/>
    <path fill="none" stroke="rgb(255,0,0)" stroke-width="152" stroke-linejoin="round" d="M 15415,13235 L 15415,12227"/>
    <path fill="rgb(255,0,0)" stroke="none" d="M 15149,12263 L 15415,11730 15682,12263 15149,12263 Z"/>
   </g>
  </g>
  <g class="com.sun.star.drawing.LineShape">
   <g id="id8">
    <rect class="BoundingBox" stroke="none" fill="none" x="9739" y="13068" width="1982" height="535"/>
    <path fill="none" stroke="rgb(85,48,141)" stroke-width="152" stroke-linejoin="round" d="M 9815,13335 L 11223,13335"/>
    <path fill="rgb(85,48,141)" stroke="none" d="M 11187,13069 L 11720,13335 11187,13602 11187,13069 Z"/>
   </g>
  </g>
  <g class="com.sun.star.drawing.LineShape">
   <g id="id9">
    <rect class="BoundingBox" stroke="none" fill="none" x="9714" y="12668" width="1982" height="535"/>
    <path fill="none" stroke="rgb(255,0,0)" stroke-width="152" stroke-linejoin="round" d="M 11619,12935 L 10211,12935"/>
    <path fill="rgb(255,0,0)" stroke="none" d="M 10247,13202 L 9714,12935 10247,12669 10247,13202 Z"/>
   </g>
  </g>
 </g>
</svg>